<?xml version="1.0" encoding="utf-8"?>
<!-- Generator: Adobe Illustrator 16.0.0, SVG Export Plug-In . SVG Version: 6.00 Build 0)  -->
<!DOCTYPE svg PUBLIC "-//W3C//DTD SVG 1.1//EN" "http://www.w3.org/Graphics/SVG/1.1/DTD/svg11.dtd">
<svg version="1.1" id="Layer_1" xmlns="http://www.w3.org/2000/svg" xmlns:xlink="http://www.w3.org/1999/xlink" x="0px" y="0px"
	 width="262.1px" height="262.1px" viewBox="0 0 262.1 262.1" style="enable-background:new 0 0 262.1 262.1;" xml:space="preserve"
	>
<style type="text/css">
<![CDATA[
	.st0{clip-path:url(#SVGID_2_);fill:url(#SVGID_3_);}
	.st1{clip-path:url(#SVGID_11_);fill:#010101;}
	.st2{clip-path:url(#SVGID_7_);fill:#ED334A;}
	.st3{clip-path:url(#SVGID_5_);fill:#46B2E5;}
	.st4{clip-path:url(#SVGID_9_);fill:#010101;}
]]>
</style>
<g>
	<g>
		<defs>
			<path id="SVGID_1_" d="M21.5,137.7c0,60.5,49.1,109.6,109.6,109.6c60.5,0,109.6-49.1,109.6-109.6c0-60.5-49-109.6-109.6-109.6
				C70.5,28.2,21.5,77.2,21.5,137.7"/>
		</defs>
		<clipPath id="SVGID_2_">
			<use xlink:href="#SVGID_1_"  style="overflow:visible;"/>
		</clipPath>
		
			<linearGradient id="SVGID_3_" gradientUnits="userSpaceOnUse" x1="-191.79" y1="491.4956" x2="-188.6261" y2="491.4956" gradientTransform="matrix(0 -66.058 66.058 0 -32336.2539 -12422.5195)">
			<stop  offset="0" style="stop-color:#FEBF10"/>
			<stop  offset="1" style="stop-color:#FEBF10"/>
		</linearGradient>
		<rect x="21.5" y="28.2" class="st0" width="219.1" height="219.1"/>
	</g>
</g>
<g>
	<g>
		<defs>
			<path id="SVGID_4_" d="M22.8,139.1c0,60.2,48.8,108.9,108.9,108.9c60.2,0,108.9-48.8,108.9-108.9c0-60.1-48.8-149.4-108.9-149.4
				C71.5-10.3,22.8,79,22.8,139.1"/>
		</defs>
		<clipPath id="SVGID_5_">
			<use xlink:href="#SVGID_4_"  style="overflow:visible;"/>
		</clipPath>
		<path class="st3" d="M190.8,208c-13.8,0-26.5,6.4-31.3,18.5c-5.2-4.4-11-4.9-18.4-4.9c-4.9,0-9.4,1.2-13.5,3.2
			c-3.1-13.1-14.8-22.8-28.9-22.8c-12.2,0-22.7,7.4-27.3,18c-4-6.2-10.9-10.3-18.8-10.3c-12.4,0-22.4,10-22.4,22.4
			c0,12.4,10,22.4,22.4,22.4c8,0,15.1-4.3,19-10.6c4.7,10.3,15,17.5,27.1,17.5c4.8,0,9.4-1.2,13.5-3.2c3.1,13.1,14.8,22.8,28.9,22.8
			c11.8,0,22-6.9,26.8-16.9c5.9,5.8,14,9.3,22.9,9.3c18.1,0,32.7-14.6,32.7-32.7C223.5,222.6,208.8,208,190.8,208"/>
	</g>
	<g>
		<defs>
			<path id="SVGID_6_" d="M22.8,139.1c0,60.2,48.8,108.9,108.9,108.9c60.2,0,108.9-48.8,108.9-108.9c0-60.1-48.8-149.4-108.9-149.4
				C71.5-10.3,22.8,79,22.8,139.1"/>
		</defs>
		<clipPath id="SVGID_7_">
			<use xlink:href="#SVGID_6_"  style="overflow:visible;"/>
		</clipPath>
		<path class="st2" d="M178.1,28v-8.6c0-0.4-0.3-0.6-0.6-0.6h-4.6v-5.1c0-0.4-0.3-0.6-0.6-0.6h-5.9c-0.4,0-0.6,0.3-0.6,0.6v5.1h-4.6
			c-0.4,0-0.7,0.3-0.7,0.6v6.1h-59v-6.1c0-0.4-0.3-0.6-0.6-0.6h-4.6v-5.1c0-0.4-0.3-0.6-0.6-0.6h-5.9c-0.4,0-0.6,0.3-0.6,0.6v5.1
			h-4.6c-0.4,0-0.6,0.3-0.6,0.6l0,2.7c0,77.6-25.5,148.4-66.6,184.6l-0.9,0.8l-1-0.7c-3.7-2.4-7.7-4.2-12-5.4
			c-0.2-0.1-0.4,0-0.5,0.1c-0.1,0-0.2,0.2-0.3,0.4c-0.1,0.3,0.2,0.7,0.5,0.8c13.2,3.6,23.6,13.5,27.8,26.5c0.1,0.3,0.4,0.4,0.6,0.4
			c0.4-0.1,0.5-0.3,0.6-0.3c0.1-0.1,0.1-0.3,0-0.5c-1.3-4.1-3.2-7.9-5.7-11.4l-0.9-1.3l1.3-0.9c5.7-4.1,12.7-6.4,19.7-6.4
			c11,0,21.4,5.4,27.7,14.5c0.3,0.5,0.7,0.3,0.9,0.2c0.2-0.1,0.3-0.3,0.3-0.4c0-0.1,0-0.3-0.1-0.5c-0.6-0.9-1.2-1.7-1.9-2.5
			l-0.7-0.8l0.5-0.9c5.1-9.5,15-15.4,25.8-15.4c12.5,0,23.6,7.9,27.7,19.7l0.4,1.3l-1.2,0.6c-1.8,1-3.6,2.2-5.2,3.5l-0.5,0.4l-0.6,0
			c-4.3-0.2-8.6,1.3-11.8,4.2c-0.3,0.2-0.3,0.6-0.1,0.9c0.2,0.2,0.3,0.2,0.4,0.2c0.1,0,0.3,0,0.5-0.2c2.9-2.5,6.5-3.9,10.3-3.9
			c4.6,0,8.9,2,11.9,5.5c0.2,0.2,0.5,0.4,0.9,0.1c0.2-0.2,0.3-0.7,0.1-0.9c-1.8-2.1-4.2-3.8-6.8-4.8l-2.9-1.1l2.7-1.7
			c4.7-3,10.1-4.5,15.6-4.5c8.6,0,16.7,3.7,22.3,10.3c0.3,0.3,0.6,0.4,0.9,0.1c0.3-0.2,0.3-0.6,0.1-0.9c-1.2-1.4-2.7-2.8-4.3-4.1
			l-1.2-0.9l0.9-1.2c1.9-2.6,3.2-5,4.3-7.1c2.1-3.7,5.5-4.2,8.9-5.9c2-1,2.9-4,6.7-4v1.6L179,28L178.1,28L178.1,28z M22.3,212.4
			l-2.6-2.3c-0.4-0.3-0.6-0.5-0.8-0.7l-1.5-1.2l4.9-4.4V212.4z M33.8,209.9c-2.7,1-5.3,2.4-7.7,4.2l-2.5,1.8l-0.1-13l0.5-0.7
			c2.7-2.7,5.4-5.7,8-8.7l2.8-3.3v19.4L33.8,209.9z M47.3,207.5l-1.5,0c-2.6,0-5.2,0.4-7.7,1l-2,0.5v-20.7l0.3-0.4
			c2.8-3.6,5.5-7.4,8-11.3l2.9-4.5L47.3,207.5L47.3,207.5z M59.9,210.2l-2.1-0.7c-2.5-0.9-5.1-1.4-7.7-1.7l-1.4-0.1v-37.7l0.2-0.4
			c2.8-4.8,5.5-9.8,8-14.9l3-6.1V210.2L59.9,210.2z M69.8,216.5c-2.4-2.1-5-3.9-7.7-5.3l-0.9-0.4l0.1-65.8c1.8-4,3.4-8.2,4.9-12.2
			c1.1-2.9,2.1-5.8,3.1-8.8l3.1-9.2l0,104.1L69.8,216.5z M83.9,205.7l-0.8,0.5c-2.5,1.5-4.7,3.3-6.7,5.4l-2.7,2.9l0.1-105.1
			c2.9-10.4,5.2-21.2,7-32.3l3.1,0.3V205.7z M160.5,221.5l-0.4,0.4c-0.8,0.9-1.5,1.9-2.2,2.9l-0.8,1.2l-1.3-0.7
			c-7.8-4.6-17.6-5.5-26.1-2.3l-1.5,0.6l-0.5-1.5c-1.5-4.1-3.9-7.9-7-11.1l-2.7-2.7h38.8c1.9,0,3.5,1.4,3.7,3.3l0,0.2V221.5z
			 M160.5,180.9c-0.3,2.1-1.9,3.5-3.8,3.5h-51.5c-2.1,0-3.8-1.7-3.8-3.8l0-48.4l0-0.1c0.1-2,1.8-3.6,3.8-3.6h51.5
			c1.9,0,3.5,1.4,3.7,3.3l0,0.2V180.9z M160.5,101.4c-0.2,2.1-1.9,3.5-3.8,3.5h-51.5c-2,0-3.7-1.6-3.8-3.6l0-0.2l0-48.3
			c0-1.8,1.7-3.5,3.8-3.5h51.5c1.9,0,3.5,1.4,3.7,3.3l0,0.2L160.5,101.4L160.5,101.4z"/>
	</g>
	<g>
		<defs>
			<path id="SVGID_8_" d="M22.8,139.1c0,60.2,48.8,108.9,108.9,108.9c60.2,0,108.9-48.8,108.9-108.9c0-60.1-48.8-149.4-108.9-149.4
				C71.5-10.3,22.8,79,22.8,139.1"/>
		</defs>
		<clipPath id="SVGID_9_">
			<use xlink:href="#SVGID_8_"  style="overflow:visible;"/>
		</clipPath>
		<path class="st4" d="M110.9,190.2c-1.2,0-2.2,1-2.2,2.2v7.4c0,1.2,1,2.2,2.2,2.2c1.2,0,2.2-1,2.2-2.2v-7.4
			C113.1,191.2,112.1,190.2,110.9,190.2 M118.9,190.2c-1.2,0-2.2,1-2.2,2.2v7.4c0,1.2,1,2.2,2.2,2.2s2.2-1,2.2-2.2v-7.4
			C121.2,191.2,120.2,190.2,118.9,190.2 M127,190.2c-1.2,0-2.2,1-2.2,2.2v7.4c0,1.2,1,2.2,2.2,2.2c1.2,0,2.2-1,2.2-2.2v-7.4
			C129.2,191.2,128.2,190.2,127,190.2 M135.1,190.2c-1.2,0-2.2,1-2.2,2.2v7.4c0,1.2,1,2.2,2.2,2.2c1.2,0,2.2-1,2.2-2.2v-7.4
			C137.3,191.2,136.3,190.2,135.1,190.2 M143.2,190.2c-1.2,0-2.2,1-2.2,2.2v7.4c0,1.2,1,2.2,2.2,2.2c1.2,0,2.2-1,2.2-2.2v-7.4
			C145.4,191.2,144.4,190.2,143.2,190.2 M151.2,190.2c-1.2,0-2.2,1-2.2,2.2v7.4c0,1.2,1,2.2,2.2,2.2c1.2,0,2.2-1,2.2-2.2v-7.4
			C153.5,191.2,152.5,190.2,151.2,190.2 M110.9,43.3c1.2,0,2.2-1,2.2-2.2v-7.4c0-1.2-1-2.2-2.2-2.2c-1.2,0-2.2,1-2.2,2.2v7.4
			C108.6,42.3,109.6,43.3,110.9,43.3 M118.9,43.3c1.2,0,2.2-1,2.2-2.2v-7.4c0-1.2-1-2.2-2.2-2.2s-2.2,1-2.2,2.2v7.4
			C116.7,42.3,117.7,43.3,118.9,43.3 M127,43.3c1.2,0,2.2-1,2.2-2.2v-7.4c0-1.2-1-2.2-2.2-2.2c-1.2,0-2.2,1-2.2,2.2v7.4
			C124.8,42.3,125.8,43.3,127,43.3 M135.1,43.3c1.2,0,2.2-1,2.2-2.2v-7.4c0-1.2-1-2.2-2.2-2.2c-1.2,0-2.2,1-2.2,2.2v7.4
			C132.9,42.3,133.9,43.3,135.1,43.3 M143.2,43.3c1.2,0,2.2-1,2.2-2.2v-7.4c0-1.2-1-2.2-2.2-2.2c-1.2,0-2.2,1-2.2,2.2v7.4
			C140.9,42.3,141.9,43.3,143.2,43.3 M151.2,43.3c1.2,0,2.2-1,2.2-2.2v-7.4c0-1.2-1-2.2-2.2-2.2c-1.2,0-2.2,1-2.2,2.2v7.4
			C149,42.3,150,43.3,151.2,43.3 M110.9,110.8c-1.2,0-2.2,1-2.2,2.2v7.4c0,1.2,1,2.2,2.2,2.2c1.2,0,2.2-1,2.2-2.2V113
			C113.1,111.8,112.1,110.8,110.9,110.8 M118.9,110.8c-1.2,0-2.2,1-2.2,2.2v7.4c0,1.2,1,2.2,2.2,2.2s2.2-1,2.2-2.2V113
			C121.2,111.8,120.2,110.8,118.9,110.8 M127,110.8c-1.2,0-2.2,1-2.2,2.2v7.4c0,1.2,1,2.2,2.2,2.2c1.2,0,2.2-1,2.2-2.2V113
			C129.2,111.8,128.2,110.8,127,110.8 M135.1,110.8c-1.2,0-2.2,1-2.2,2.2v7.4c0,1.2,1,2.2,2.2,2.2c1.2,0,2.2-1,2.2-2.2V113
			C137.3,111.8,136.3,110.8,135.1,110.8 M143.2,110.8c-1.2,0-2.2,1-2.2,2.2v7.4c0,1.2,1,2.2,2.2,2.2c1.2,0,2.2-1,2.2-2.2V113
			C145.4,111.8,144.4,110.8,143.2,110.8 M151.2,110.8c-1.2,0-2.2,1-2.2,2.2v7.4c0,1.2,1,2.2,2.2,2.2c1.2,0,2.2-1,2.2-2.2V113
			C153.5,111.8,152.5,110.8,151.2,110.8 M287.1,220.5c-1,0.6-2.4,0.3-3.1-0.8c-8.6-14.5-25.5-21.6-41.9-17.8
			c-14.3,3.3-25.3,14.2-28.8,28.4c-0.3,1-1.2,1.7-2.2,1.7c-0.2,0-0.4,0-0.5-0.1c-1.2-0.3-1.9-1.5-1.6-2.7c1.1-4.4,2.8-8.5,5.1-12.2
			c-6.5-4.6-14.3-7-22.2-7c-12.5,0-24.3,6.1-31.5,16.3c1.6,1.3,3.1,2.7,4.5,4.3c0.8,0.9,0.7,2.3-0.2,3.1c-0.4,0.4-0.9,0.5-1.4,0.5
			c-0.6,0-1.3-0.3-1.7-0.8c-5.3-6.2-13-9.7-21.1-9.7c-5.3,0-10.4,1.5-14.8,4.3c2.8,1.1,5.4,2.9,7.4,5.2c0.8,0.9,0.7,2.3-0.2,3.1
			c-0.4,0.4-0.9,0.5-1.4,0.5c-0.6,0-1.3-0.3-1.7-0.8c-2.7-3.1-6.6-4.9-10.7-4.9c-3.4,0-6.7,1.2-9.2,3.5c-0.9,0.8-2.3,0.7-3.1-0.2
			c-0.8-0.9-0.7-2.3,0.2-3.1c3.4-3,7.7-4.6,12.2-4.6c0.3,0,0.5,0,0.8,0c1.7-1.4,3.5-2.7,5.5-3.7c-3.8-11-14.4-18.6-26.2-18.6
			c-10.1,0-19.6,5.7-24.4,14.5c0.7,0.8,1.3,1.7,2,2.6c0.7,1,0.4,2.4-0.6,3.1c-0.4,0.3-0.8,0.4-1.3,0.4c-0.7,0-1.4-0.3-1.8-1
			c-6-8.7-15.9-13.9-26.4-13.9c-6.8,0-13.4,2.2-18.8,6.1c2.5,3.6,4.5,7.5,5.9,11.8c0.4,1.2-0.3,2.4-1.4,2.8
			c-0.2,0.1-0.5,0.1-0.7,0.1c-0.9,0-1.8-0.6-2.1-1.5c-4-12.5-14-22.1-26.7-25.5c-1.2-0.3-1.9-1.5-1.6-2.7c0.3-1.2,1.5-1.9,2.7-1.6
			c4.5,1.2,8.7,3.1,12.5,5.6C57,169.5,82.3,99.4,82.3,22c0-0.1,0-0.2,0-0.2v-2.3c0-1.2,1-2.2,2.2-2.2h3v-3.5c0-1.2,1-2.2,2.2-2.2
			h5.9c1.2,0,2.2,1,2.2,2.2v3.5h3c1.2,0,2.2,1,2.2,2.2v4.5h55.8v-4.5c0-1.2,1-2.2,2.2-2.2h3v-3.5c0-1.2,1-2.2,2.2-2.2h5.9
			c1.2,0,2.2,1,2.2,2.2v3.5h3c1.2,0,2.2,1,2.2,2.2V28c1.1,62.9,18.6,120.3,48.1,158.2c0.9,1.1,1.8,2.3,2.7,3.4
			c2.5,3.1,5.1,6,7.8,8.8c0.9-0.3,1.8-0.5,2.7-0.7c18.3-4.3,37.1,3.7,46.8,19.8C288.5,218.5,288.1,219.9,287.1,220.5 M20.7,207.5
			c-0.3,0.2-0.6,0.5-0.8,0.8c0.3,0.2,0.6,0.5,0.8,0.7V207.5z M33.2,194.4c-2.6,3.1-5.3,6.1-8.1,8.8c0,0.1,0,0.2,0,0.3v9.2
			c2.5-1.8,5.2-3.3,8.1-4.4L33.2,194.4L33.2,194.4z M45.7,177.5c-2.6,4-5.3,7.8-8.1,11.4V207c2.6-0.6,5.3-1,8.1-1.1V177.5z
			 M58.3,155.3c-2.6,5.2-5.3,10.2-8.1,15v35.8c2.8,0.3,5.5,0.9,8.1,1.8V155.3z M70.8,124.5c-1,3-2,5.9-3.1,8.8
			c-1.6,4.2-3.2,8.3-5,12.3v64.2c2.9,1.5,5.6,3.3,8.1,5.5L70.8,124.5z M82.3,77.4c-1.8,11.1-4.2,22-7,32.4v100.6
			c2.1-2.2,4.4-4.2,7-5.7V77.4z M98.7,21.6h-3c-1.2,0-2.2-1-2.2-2.2v-3.5H92v3.5c0,1.2-1,2.2-2.2,2.2h-3v180.9
			c3.7-1.5,7.8-2.4,11.9-2.4L98.7,21.6L98.7,21.6z M158.9,211.7c-0.1-1.1-1.1-1.9-2.2-1.9h-35c3.2,3.2,5.8,7.2,7.4,11.6
			c3.5-1.3,7.3-2,11.1-2c5.8,0,11.4,1.6,16.3,4.4c0.7-1,1.5-2,2.3-3L158.9,211.7z M158.9,186.9c-0.7,0.2-1.4,0.4-2.2,0.4h-51.5
			c-0.8,0-1.5-0.1-2.2-0.4v13.5c4.7,0.6,9.2,2.3,13.2,4.9h40.5c0.8,0,1.5,0.1,2.2,0.4V186.9L158.9,186.9z M158.9,132.1
			c-0.1-1.1-1.1-1.9-2.2-1.9h-51.5c-1.2,0-2.2,1-2.2,2.2c0,0,0,0,0,0v48.2c0,0,0,0,0,0.1c0,1.2,1,2.2,2.2,2.2h51.5
			c1.1,0,2-0.8,2.2-1.9V132.1z M158.9,107.4c-0.7,0.2-1.4,0.4-2.2,0.4h-51.5c-0.8,0-1.5-0.1-2.2-0.4v18.8c0.7-0.2,1.4-0.4,2.2-0.4
			h51.5c0.8,0,1.5,0.1,2.2,0.4V107.4z M158.9,52.8c-0.1-1.1-1.1-1.9-2.2-1.9h-51.5c-1.2,0-2.2,1-2.2,2.2c0,0,0,0,0,0V101
			c0,0,0,0,0,0c0,1.2,1,2.2,2.2,2.2h51.5c1.1,0,2-0.8,2.2-1.9V52.8z M158.9,28.4h-55.8v18.4c0.7-0.2,1.4-0.4,2.2-0.4h51.5
			c0.8,0,1.5,0.1,2.2,0.4V28.4z M175.3,27.9c0-2-0.1-3.9-0.1-5.9c0-0.1,0-0.2,0-0.4h-3c-1.2,0-2.2-1-2.2-2.2v-3.5h-1.4v3.5
			c0,1.2-1,2.2-2.2,2.2h-3v4.2c0,0.1,0,0.2,0,0.3v106.2c0,0.1,0,48,0,48c0,0.1,0,0.2,0,0.3V212c0,0.1,0,0.2,0,0.3v4.1
			c3.5-3.1,7.6-5.6,11.9-7.4L175.3,27.9z M186.7,109.8c-2.8-10.3-5.2-21.1-7-32v129.6c2.3-0.7,4.6-1.1,7-1.4V109.8z M199.2,145.7
			c-2.6-6-5-12.2-7.3-18.7c-0.3-0.8-0.6-1.6-0.8-2.5v81.1c0.2,0,0.5,0,0.7,0c2.5,0,5,0.2,7.4,0.6V145.7L199.2,145.7z M211.8,170.3
			c-2.8-4.8-5.5-9.8-8.1-15v52c2.8,0.8,5.5,1.9,8.1,3.2V170.3z M224.3,188.9c-2.8-3.6-5.5-7.4-8.1-11.4v35.7
			c0.1,0.1,0.2,0.2,0.3,0.2c2.2-2.9,4.8-5.6,7.7-7.8v-9.1V193L224.3,188.9C224.3,188.9,224.3,188.9,224.3,188.9 M233.8,200
			c-1.7-1.8-3.4-3.7-5-5.6v8.2C230.4,201.6,232.1,200.8,233.8,200"/>
	</g>
</g>
<g>
	<g>
		<defs>
			<rect id="SVGID_10_" x="-27.2" y="-28.2" width="316.5" height="316.5"/>
		</defs>
		<clipPath id="SVGID_11_">
			<use xlink:href="#SVGID_10_"  style="overflow:visible;"/>
		</clipPath>
		<path class="st1" d="M180.1,38c0,0-0.6-0.3-0.6,0.2c0,0.7-0.1,3.1,0.8,3.4c34.9,17.9,58.8,54.2,58.8,96.1c0,59.5-48.4,108-108,108
			c-59.5,0-108-48.4-108-108c0-41.8,23.8-78,58.6-96l0.1,0c0,0,0.1-0.7,0.2-1.6c0-0.7,0.1-1.7,0-2.1c-36.7,18.2-62,56-62,99.7
			c0,61.3,49.9,111.1,111.1,111.1c61.3,0,111.1-49.9,111.1-111.1C242.2,94.1,216.8,56.2,180.1,38"/>
	</g>
</g>
</svg>
