<?xml version="1.0" standalone="no"?>
<!DOCTYPE svg PUBLIC "-//W3C//DTD SVG 20010904//EN"
 "http://www.w3.org/TR/2001/REC-SVG-20010904/DTD/svg10.dtd">
<svg version="1.0" xmlns="http://www.w3.org/2000/svg"
 width="16.000000pt" height="16.000000pt" viewBox="0 0 16.000000 16.000000"
 preserveAspectRatio="xMidYMid meet">
<metadata>
Created by potrace 1.11, written by Peter Selinger 2001-2013
</metadata>
<g transform="translate(0.000000,16.000000) scale(0.002286,-0.002286)"
fill="#000000" stroke="none">
<path d="M2355 6670 c-13 -14 -18 -35 -17 -75 0 -44 -3 -55 -16 -56 -64 -2
-95 -8 -108 -20 -13 -14 -20 -157 -23 -459 l-1 -75 -102 -55 c-84 -45 -206
-123 -333 -210 -147 -102 -419 -358 -541 -511 -32 -41 -62 -76 -65 -79 -21
-18 -209 -302 -209 -316 0 -3 -9 -18 -19 -33 -31 -43 -127 -240 -171 -352 -49
-122 -84 -225 -111 -329 -10 -41 -22 -84 -25 -95 -12 -45 -53 -274 -58 -325
-13 -132 -20 -273 -20 -380 1 -108 11 -290 20 -333 2 -11 6 -45 10 -76 3 -31
8 -59 10 -63 3 -4 7 -26 9 -49 2 -23 7 -50 10 -59 3 -10 8 -27 10 -37 41 -201
125 -441 232 -661 58 -121 170 -312 228 -391 19 -25 49 -66 67 -91 42 -57 58
-76 139 -169 335 -384 760 -673 1244 -846 84 -30 221 -71 264 -80 9 -2 46 -10
82 -18 35 -9 80 -18 99 -21 19 -3 46 -8 59 -11 13 -2 49 -7 80 -10 31 -4 63
-8 71 -10 31 -8 209 -18 325 -18 446 -1 881 96 1273 284 56 27 104 49 106 49
2 0 34 18 70 40 36 22 68 40 70 40 2 0 46 28 98 63 219 147 315 226 491 401
83 83 134 141 266 301 28 34 136 196 185 278 200 333 349 766 391 1143 4 32 9
73 12 89 8 55 10 429 2 495 -4 36 -10 95 -13 133 -20 207 -123 609 -197 761
-10 22 -19 44 -19 48 0 16 -129 269 -182 356 -163 271 -399 549 -636 751 -113
97 -377 281 -402 281 -6 0 -10 4 -10 9 0 5 -12 14 -27 20 -64 25 -167 90 -170
108 -2 10 -5 126 -7 257 -3 236 -4 240 -27 259 -13 10 -36 17 -53 17 -61 -4
-61 -4 -62 55 -1 85 -15 95 -136 95 -122 0 -138 -11 -138 -95 0 -37 -4 -55
-12 -56 -7 0 -29 -1 -48 -2 -63 -3 -72 -16 -77 -98 -3 -41 -6 -75 -8 -77 -2
-2 -1212 -4 -1432 -2 l-53 0 0 68 c0 98 -11 108 -122 111 -15 1 -18 11 -18 60
0 82 -14 91 -141 91 -83 0 -98 -3 -114 -20z"/>
</g>
</svg>
